<svg xmlns="http://www.w3.org/2000/svg" viewBox="0 0 360 440" role="img" aria-label="Paid expertise on Stan"><title>Paid expertise on Stan</title><desc>Downloads: 2.2 million units; courses: 300,000 units. Bars share a zero baseline. More than 59,000 creators earned; a separate count.</desc><rect width="360" height="440" fill="#f8f7f2"/><text x="24" y="35" font-family="Arial,sans-serif" font-size="16" fill="#58655f" text-anchor="start" font-weight="700">STAN · UNITS SOLD IN 2025</text><text x="24" y="85" font-family="Arial,sans-serif" font-size="20" fill="#163e35" text-anchor="start" font-weight="400">Digital downloads</text><text x="336" y="85" font-family="Arial,sans-serif" font-size="22" fill="#367f8c" text-anchor="end" font-weight="700">2.2 million</text><rect x="24" y="105" width="312.0" height="30" fill="#367f8c"/><text x="24" y="185" font-family="Arial,sans-serif" font-size="20" fill="#163e35" text-anchor="start" font-weight="400">Courses</text><text x="336" y="185" font-family="Arial,sans-serif" font-size="22" fill="#bd7626" text-anchor="end" font-weight="700">300,000</text><rect x="24" y="205" width="42.54545454545455" height="30" fill="#bd7626"/><text x="24" y="281" font-family="Arial,sans-serif" font-size="14" fill="#58655f" text-anchor="start" font-weight="400">0</text><text x="336" y="281" font-family="Arial,sans-serif" font-size="14" fill="#58655f" text-anchor="end" font-weight="400">2.2m</text><path d="M24,303L336,303" fill="none" stroke="#d8ded5" stroke-width="2"/><g transform="translate(59 357)" fill="none" stroke="#367f8c" stroke-width="3" stroke-linecap="round" stroke-linejoin="round"><path d="M-18,-4A8,8 0 1 1 -18,-20A8,8 0 1 1 -18,-4 M18,-4A8,8 0 1 1 18,-20A8,8 0 1 1 18,-4 M-30,23V12Q-18,0 -6,12V23 M6,23V12Q18,0 30,12V23"/></g><text x="109" y="350" font-family="Arial,sans-serif" font-size="30" fill="#163e35" text-anchor="start" font-weight="700">59,000+</text><text x="109" y="378" font-family="Arial,sans-serif" font-size="18" fill="#58655f" text-anchor="start" font-weight="400">creators earned</text></svg>