<svg xmlns="http://www.w3.org/2000/svg" viewBox="0 0 610 450" role="img" aria-labelledby="title"><title id="title">sy monogram persimmon</title><path d="M245 60 C145 20 55 50 55 122 C55 185 110 192 170 212 C205 224 205 243 180 252 C144 264 105 250 70 225 L30 287 C92 336 225 340 266 265 C301 191 247 160 172 140 C124 126 122 105 160 101 C188 98 217 111 239 124 Z" fill="#EE6747"/><path d="M295 50 L377 50 L433 204 L493 50 L575 50 L458 340 C439 391 399 420 330 420 L311 351 C352 351 378 342 391 306 Z" fill="#EE6747"/></svg>